<svg viewBox="0 0 406 406" xmlns="http://www.w3.org/2000/svg"><title>KISO</title><g fill="none" stroke="#fff" stroke-miterlimit="10" stroke-width="6"><circle cx="203" cy="203" r="200"/><path d="m15.59 273h115.41v60h-79.98"/><path d="m3 203h195v60h-185.84"/><path d="m198 403v-60h-137.83"/><path d="m403 203h-195v60h185.84"/><path d="m208 403v-60h137.82"/><path d="m392 273h-115.41v60h79.98"/><path d="m141 273h126v60h-126z"/></g><path d="m119 79a46.18 46.18 0 0 0 -.6-8.71h7.2a70.79 70.79 0 0 0 -.5 8.71v.6h35.2v-.6a46.92 46.92 0 0 0 -.6-8.71h7.2a54.57 54.57 0 0 0 -.5 8.71v.6h9.2a67.33 67.33 0 0 0 10.11-.6v6.5c-3.2-.3-6.3-.5-10.11-.5h-9.2v32.1h11a72.61 72.61 0 0 0 10.2-.6v6.5a71.59 71.59 0 0 0 -10-.6h-15.1c6.9 6.6 15 10.6 27.91 13.8a26.7 26.7 0 0 0 -3.5 6.1c-15-5-23.41-10.3-32-19.9h-24.71c-7.6 9.5-16.3 15.2-30.8 20.3a17.23 17.23 0 0 0 -3.5-6c11.9-2.8 21.3-7.8 26.9-14.3h-14.6a69.57 69.57 0 0 0 -10 .6v-6.5a67.12 67.12 0 0 0 9.9.6h10.9v-32.1h-7.5c-3.8 0-7 .2-10.1.5v-6.5a66.37 66.37 0 0 0 10.1.6h7.5zm20.1 54.9a54.53 54.53 0 0 0 -.5-8h6.9a42.73 42.73 0 0 0 -.5 8v.9h14.3a66.56 66.56 0 0 0 8.7-.4v6.2a67.55 67.55 0 0 0 -8.7-.4h-14.3v11.1h27.4a69.81 69.81 0 0 0 10.51-.5v6.6a81.7 81.7 0 0 0 -10.7-.6h-57.51a83.81 83.81 0 0 0 -10.9.6v-6.6a83.28 83.28 0 0 0 10.7.5h24.6v-11.1h-12.3a70.59 70.59 0 0 0 -8.7.4v-6.2a66.56 66.56 0 0 0 8.7.4h12.3zm21.2-41.7v-7.2h-35.2v7.2zm0 12.3v-7.1h-35.2v7.1zm0 12.6v-7.4h-35.2v7.4z" fill="#fff"/><path d="m227.7 79.2a55.37 55.37 0 0 0 -9 .5v-6.6a86.61 86.61 0 0 0 9.5.5h10.2a65.19 65.19 0 0 0 9.3-.5v6.5a72.8 72.8 0 0 0 -9-.4h-2.1a114.49 114.49 0 0 1 -5.7 25.8h8.6a49.09 49.09 0 0 0 6.1-.2 66.8 66.8 0 0 0 -.3 7.9v27c0 4.8 0 6.2.3 8.1a50.4 50.4 0 0 0 -6.1-.3h-9.3v9.9h-6.3a57 57 0 0 0 .6-9.5v-20.4c0-3.5.1-6.5.3-10.8a60.47 60.47 0 0 1 -6 10.5 22.56 22.56 0 0 0 -3.5-5.8 66.69 66.69 0 0 0 12-24.3 78.68 78.68 0 0 0 3.2-17.9zm2.5 63.1h9.7v-31.8h-9.7zm44.5-24.4h-16.8a48.6 48.6 0 0 0 -8.7.5v-6.4a48.6 48.6 0 0 0 8.7.5h37.4c4.91 0 7.11-.1 8.81-.5l3.7 3.7c-.6.9-.6.9-1.8 2.8a53.85 53.85 0 0 1 -8.6 10.1 19.53 19.53 0 0 0 -5.2-3.1 35.11 35.11 0 0 0 7.79-7.6h-19.3v13.3h12.21a50.52 50.52 0 0 0 8.9-.5v6.3a52.57 52.57 0 0 0 -8.9-.5h-12.21v13.9a62 62 0 0 0 14.51 1.4c4.29 0 7.9-.2 15.5-.8a18.77 18.77 0 0 0 -2 6.8c-3.5.1-6.3.1-8 .1-22.61 0-33.51-4-41.21-15.3-3.2 7.4-6.7 12.2-13.2 18.2a19 19 0 0 0 -4.8-4.6c7.1-5.7 10.8-10.5 13.6-18.1a40.71 40.71 0 0 0 2.7-14.5l6.5 1c-1.5 7.5-2 9.6-2.8 12.5 3.7 5.8 7.3 8.9 13.2 11.4zm-6.4-38.7a34.17 34.17 0 0 0 6.9-.5v6a48.26 48.26 0 0 0 -6.7-.4h-2.6a34.41 34.41 0 0 0 10.3 9.8 22.79 22.79 0 0 0 -3.2 4 33.8 33.8 0 0 1 -7.7-8.9c.2 3.8.4 6.8.4 8.1v4.4a44.48 44.48 0 0 0 .4 7.1h-5.8a59 59 0 0 0 .4-7.2v-4.3a24.51 24.51 0 0 1 .1-2.5c.1-1.5.1-1.5.2-2.9a23.55 23.55 0 0 1 .1-2.5c-3.6 6.6-6.8 10.4-13.3 16a12 12 0 0 0 -3.8-4c7.5-5.4 11.5-9.7 15.8-17.1h-4.5a45.22 45.22 0 0 0 -6.8.4v-5.9a39.76 39.76 0 0 0 6.4.4h5.7v-1.8a41.48 41.48 0 0 0 -.5-7.5h6a43 43 0 0 0 -.4 7.5v1.8zm25.11 5.1a42.66 42.66 0 0 0 17.4 16.3 24.28 24.28 0 0 0 -3.4 5c-7.3-5.1-10.91-9-15.31-16.6.2 1.9.4 5.4.4 8.1v4.6a45.55 45.55 0 0 0 .5 7.1h-6a55.49 55.49 0 0 0 .5-7.2v-4.3c0-1.7.2-5.8.3-7.9-4 7.4-7.2 11.3-13.7 16.5a12.83 12.83 0 0 0 -3.7-4c8.4-5.9 11.3-9.1 16-17.6h-2.6a50.27 50.27 0 0 0 -6.9.4v-6a34.32 34.32 0 0 0 6.8.5h3.8v-1.8a39.51 39.51 0 0 0 -.5-7.5h5.91a49.52 49.52 0 0 0 -.41 7.5v1.8h7.5a48.2 48.2 0 0 0 7.31-.4v5.9a52.89 52.89 0 0 0 -7.2-.4z" fill="#fff"/></svg>