<?xml version="1.0" standalone="no"?>
<!DOCTYPE svg PUBLIC "-//W3C//DTD SVG 20010904//EN"
 "http://www.w3.org/TR/2001/REC-SVG-20010904/DTD/svg10.dtd">
<svg version="1.0" xmlns="http://www.w3.org/2000/svg"
 width="1000.000000pt" height="1000.000000pt" viewBox="0 0 1000.000000 1000.000000"
 preserveAspectRatio="xMidYMid meet">
<metadata>Kiso</metadata>
<g transform="translate(0.000000,1000.000000) scale(0.100000,-0.100000)"
fill="#000000" stroke="none">
<path d="M4857 9975 c-1 -1 -65 -5 -142 -9 -77 -3 -156 -8 -175 -10 -19 -3
-62 -8 -95 -11 -72 -7 -98 -11 -195 -26 -41 -6 -84 -12 -95 -14 -68 -9 -262
-52 -395 -86 -467 -120 -922 -310 -1325 -554 -181 -109 -454 -302 -592 -418
-142 -120 -202 -175 -359 -331 -313 -313 -534 -595 -764 -976 -159 -261 -343
-667 -450 -990 -35 -106 -117 -405 -134 -490 -17 -84 -45 -242 -50 -280 -4
-25 -9 -56 -11 -70 -6 -29 -14 -92 -21 -170 -3 -30 -7 -66 -9 -80 -24 -134
-23 -743 0 -925 2 -16 7 -57 10 -90 7 -64 13 -112 20 -160 3 -16 7 -48 10 -70
22 -151 91 -455 140 -615 14 -47 27 -89 28 -95 55 -216 292 -755 442 -1003 66
-111 98 -162 154 -247 36 -55 68 -102 72 -105 3 -3 21 -27 39 -55 32 -47 207
-274 219 -285 4 -3 33 -36 66 -75 83 -98 374 -392 459 -463 39 -33 80 -68 91
-79 11 -10 61 -50 110 -89 399 -312 787 -539 1235 -721 269 -109 646 -220 915
-270 22 -4 42 -8 45 -8 3 -1 28 -5 55 -9 28 -4 73 -11 100 -16 57 -10 109 -17
198 -26 34 -3 73 -7 86 -9 144 -23 799 -23 920 0 9 1 48 6 86 9 39 4 81 8 95
11 14 2 61 9 105 15 44 7 91 14 105 16 14 2 70 13 125 24 55 12 111 24 125 26
172 34 523 143 755 236 156 63 443 199 555 263 36 21 79 45 95 55 232 133 510
331 730 519 101 86 411 391 498 489 146 165 399 503 482 644 6 9 39 66 75 125
162 272 338 664 444 988 75 231 158 575 181 754 2 18 7 51 10 72 9 63 14 101
21 164 3 33 7 71 10 85 17 108 23 500 11 745 -8 147 -11 186 -22 273 -3 23 -7
63 -10 90 -3 26 -8 58 -10 72 -3 14 -7 43 -10 65 -3 22 -10 63 -16 91 -5 28
-12 64 -15 80 -12 75 -67 301 -104 429 -224 772 -636 1485 -1190 2059 -131
136 -182 184 -316 302 -108 95 -180 154 -299 242 -60 45 -114 85 -120 89 -37
29 -228 151 -320 205 -208 122 -328 184 -530 272 -71 31 -139 61 -150 66 -173
78 -694 231 -905 265 -19 4 -86 15 -148 26 -63 10 -133 21 -155 24 -23 2 -58
7 -77 9 -124 17 -308 27 -528 30 -100 1 -183 2 -185 1z m348 -250 c201 -7 230
-9 425 -35 120 -16 147 -20 338 -56 184 -35 617 -163 739 -219 17 -8 34 -15
37 -15 15 0 239 -101 376 -169 236 -119 522 -294 705 -433 414 -315 791 -703
1048 -1078 166 -243 251 -387 367 -619 199 -397 358 -885 425 -1298 3 -18 7
-45 9 -60 6 -38 25 -178 32 -233 12 -103 14 -145 20 -347 l7 -211 -2279 -1
c-1254 0 -2291 0 -2305 -1 l-27 0 2 -727 1 -728 2180 0 c1744 -1 2179 -3 2177
-13 -5 -26 -84 -237 -91 -245 -4 -4 -453 -8 -998 -8 l-990 0 1 -727 1 -727
523 0 c317 0 522 -4 522 -9 0 -16 -250 -256 -268 -257 -9 -1 -692 -2 -1517 -3
l-1500 -1 -3 -617 -2 -618 -48 -1 c-98 -2 -226 2 -230 6 -3 2 -5 280 -5 617
l0 613 -1535 0 -1536 0 -130 127 c-71 71 -127 130 -124 133 3 3 239 7 524 8
l519 2 2 727 2 727 -991 0 c-545 0 -995 4 -999 8 -7 8 -86 219 -91 245 -2 10
434 12 2172 14 1196 1 2178 2 2181 3 4 0 6 327 6 726 0 530 -3 725 -11 725 -6
1 -1043 1 -2305 1 l-2294 1 6 201 c3 111 8 229 11 262 7 79 16 154 21 185 2
14 7 45 10 70 3 25 7 54 9 65 2 11 7 41 10 67 4 26 22 118 41 205 228 1031
779 1943 1585 2619 591 496 1295 840 2053 1003 54 12 114 24 134 27 19 3 45 8
57 10 11 2 55 9 96 15 41 5 86 12 100 15 14 2 54 7 90 10 36 3 83 8 105 10 22
2 123 7 225 10 102 4 186 8 188 9 2 2 11 1 20 -1 9 -1 89 -5 177 -9z m-570
-5502 l0 -483 -25 -1 c-230 -6 -4164 1 -4170 7 -15 16 -95 369 -115 509 -3 22
-7 51 -10 65 -14 94 -28 226 -37 370 0 3 0 8 1 13 0 4 981 6 2178 5 l2178 -3
0 -482z m5092 479 c-3 -4 -8 -45 -11 -92 -8 -116 -16 -185 -26 -250 -5 -30
-12 -75 -15 -100 -25 -182 -102 -509 -122 -517 -27 -11 -4183 -9 -4186 2 -3 9
-1 956 2 963 0 1 982 2 2182 2 1199 0 2178 -3 2176 -8z m-7382 -1721 c10 -1
15 -960 5 -962 -3 -1 -234 -2 -514 -3 l-508 -1 -67 85 c-124 159 -235 322
-348 515 -78 131 -193 356 -188 365 3 4 1585 6 1620 1z m6927 -11 c-11 -50
-181 -357 -296 -535 -114 -177 -280 -402 -305 -414 -9 -4 -243 -7 -521 -7
l-505 1 -1 475 c0 261 1 480 3 485 2 7 279 10 816 10 704 -1 812 -3 809 -15z
m-4657 -1709 c20 -1 20 -8 20 -489 l0 -487 -30 1 c-48 2 -178 13 -200 18 -11
2 -42 7 -70 10 -98 14 -122 18 -245 42 -69 14 -136 27 -150 30 -14 3 -33 7
-42 10 -9 3 -25 7 -35 9 -158 34 -558 168 -716 239 -18 8 -54 24 -82 36 -68
30 -336 165 -383 192 -171 103 -222 135 -322 201 -138 92 -251 177 -246 185 3
5 2362 7 2501 3z m3271 -3 c5 -5 -58 -55 -166 -130 -227 -158 -379 -248 -600
-358 -80 -39 -153 -75 -162 -80 -30 -16 -291 -122 -363 -147 -258 -89 -577
-173 -792 -208 -39 -6 -82 -13 -124 -20 -17 -3 -54 -8 -83 -11 -28 -3 -64 -7
-81 -9 -16 -2 -48 -5 -70 -7 l-40 -3 -1 485 c-1 267 2 487 7 490 9 7 2468 4
2475 -2z"/>
<path d="M2840 2500 l0 -728 2160 -1 2160 0 0 729 0 729 -2160 0 -2160 0 0
-729z m4066 481 c8 -1 11 -142 11 -484 l0 -482 -1916 0 -1916 0 -1 485 -1 485
1906 -1 c1048 -1 1911 -2 1917 -3z"/>
</g>
</svg>
