<?xml version="1.0" standalone="no"?>
<!DOCTYPE svg PUBLIC "-//W3C//DTD SVG 20010904//EN"
 "http://www.w3.org/TR/2001/REC-SVG-20010904/DTD/svg10.dtd">
<svg version="1.0" xmlns="http://www.w3.org/2000/svg"
 width="700.000000pt" height="700.000000pt" viewBox="0 0 700.000000 700.000000"
 preserveAspectRatio="xMidYMid meet">
<metadata>
Created by potrace 1.11, written by Peter Selinger 2001-2013
</metadata>
<g transform="translate(0.000000,700.000000) scale(0.100000,-0.100000)"
fill="#000000" stroke="none">
<path d="M3279 6996 c-2 -2 -42 -6 -89 -10 -47 -4 -96 -8 -110 -11 -14 -3 -44
-7 -65 -9 -51 -6 -107 -14 -170 -27 -27 -5 -59 -11 -70 -13 -171 -33 -467
-126 -613 -192 -29 -13 -57 -24 -62 -24 -22 0 -336 -166 -455 -241 -151 -95
-374 -263 -492 -371 -578 -529 -956 -1209 -1099 -1978 -2 -14 -6 -36 -9 -50
-3 -14 -7 -47 -11 -75 -3 -27 -8 -57 -9 -66 -26 -137 -26 -703 0 -838 2 -12 6
-48 9 -80 7 -73 38 -230 72 -364 221 -880 766 -1627 1544 -2118 268 -169 713
-361 958 -414 44 -10 58 -13 97 -24 43 -11 186 -39 239 -47 17 -2 49 -6 71 -9
22 -3 51 -7 64 -10 137 -26 682 -26 843 0 13 2 59 9 103 15 44 7 89 14 100 16
11 2 36 7 55 10 62 11 263 62 360 92 602 187 1154 543 1570 1011 36 41 70 79
76 85 6 6 48 61 94 121 344 452 561 944 664 1505 13 74 28 167 31 205 4 39 9
84 12 100 9 55 11 509 2 597 -13 144 -22 210 -39 308 -6 36 -13 79 -16 95 -3
17 -21 91 -39 166 -219 885 -793 1663 -1580 2142 -353 216 -807 387 -1195 452
-52 9 -106 18 -120 20 -14 3 -54 7 -90 11 -36 3 -78 8 -95 11 -34 6 -531 14
-536 9z m489 -110 c126 -11 174 -17 267 -32 120 -20 137 -23 160 -29 11 -2 49
-11 85 -19 322 -71 703 -229 1010 -420 101 -63 329 -225 366 -260 6 -6 40 -36
75 -66 81 -69 230 -216 299 -295 29 -33 65 -74 81 -91 57 -66 203 -269 275
-384 132 -213 260 -487 339 -726 39 -116 90 -310 100 -376 4 -24 8 -45 10 -48
2 -3 6 -26 10 -50 3 -25 10 -67 15 -95 14 -77 30 -248 33 -365 l2 -75 -1680
-3 -1680 -2 1 -558 c1 -306 2 -562 2 -568 2 -7 463 -10 1583 -10 869 1 1584
-1 1588 -4 4 -3 2 -19 -5 -35 l-12 -30 -982 0 c-603 0 -984 -4 -988 -9 -8 -14
-9 -1098 -1 -1116 6 -13 87 -15 643 -14 690 1 643 5 595 -48 -15 -17 -85 -18
-1220 -20 l-1204 -3 -2 -505 c0 -278 -1 -510 -2 -516 -2 -18 -59 -12 -63 6 -2
8 -4 241 -3 517 l0 503 -1206 0 -1207 0 -25 33 -25 34 651 0 652 0 3 569 2
569 -1001 0 -1001 0 -13 30 c-6 16 -11 32 -9 34 2 3 718 5 1591 5 l1588 1 0
567 1 568 -1681 2 -1680 3 1 40 c2 130 20 323 40 440 41 243 90 428 166 635
211 568 541 1037 1013 1440 67 57 240 184 332 243 245 158 483 272 773 370
140 48 222 69 425 113 11 2 40 7 65 10 25 3 47 8 50 9 3 2 30 6 60 10 30 3 69
8 85 10 17 2 71 7 120 10 50 4 91 8 92 9 5 5 374 -2 441 -8z m-408 -3463 c1
-39 1 -864 1 -888 -1 -20 -7 -20 -1552 -19 -895 1 -1554 5 -1559 10 -20 21
-89 324 -115 504 -19 140 -37 405 -27 415 3 3 736 5 1629 5 l1623 0 0 -27z
m3534 -13 c-2 -77 -14 -266 -18 -290 -3 -14 -7 -47 -11 -75 -5 -53 -18 -125
-41 -240 -16 -82 -66 -271 -74 -279 -6 -6 -2936 -13 -3095 -7 -21 1 -21 -18
-15 869 l0 62 1628 -2 1627 -3 -1 -35z m-4687 -1635 l0 -465 -653 0 -653 0
-64 83 c-92 118 -157 212 -232 332 -36 58 -65 107 -65 109 0 2 -16 33 -36 68
-37 64 -135 275 -148 316 l-7 22 929 0 929 0 0 -465z m4443 456 c0 -5 -28 -70
-62 -143 -117 -251 -248 -468 -411 -675 l-80 -103 -638 0 -639 0 0 465 0 465
915 0 c560 0 915 -4 915 -9z m-3294 -1203 c8 -9 8 -904 -1 -917 -3 -6 -9 -10
-13 -7 -4 2 -50 7 -102 10 -52 4 -106 9 -120 11 -14 2 -50 6 -80 10 -46 5
-128 20 -335 61 -19 4 -56 14 -195 55 -290 87 -627 246 -890 422 -112 75 -284
205 -338 256 -18 16 -51 45 -72 62 -21 18 -37 35 -35 38 4 8 2173 7 2181 -1z
m2467 3 c4 -1 -21 -26 -55 -58 -296 -265 -658 -489 -1018 -630 -232 -91 -430
-147 -660 -188 -112 -20 -211 -32 -330 -41 -47 -3 -87 -7 -90 -9 -3 -2 -12 0
-19 4 -10 7 -13 100 -13 461 1 282 4 455 10 459 8 5 2137 6 2175 2z"/>
<path d="M4489 5785 c0 -5 0 -42 1 -81 l1 -71 -103 3 -103 3 0 -49 0 -49 92 4
c63 3 93 1 93 -7 0 -35 -159 -215 -232 -262 l-28 -18 28 -33 c15 -19 32 -34
38 -34 18 -1 138 130 183 198 l41 64 -5 -164 -5 -165 43 2 c59 2 58 1 53 30
-4 20 -9 248 -7 288 1 5 17 -13 37 -40 20 -27 49 -59 64 -71 l28 -23 26 34 25
34 -37 28 c-38 28 -132 124 -132 135 0 3 35 5 78 3 l77 -3 0 47 0 47 -80 0
-80 0 0 78 c1 42 -2 78 -5 78 -26 7 -90 3 -91 -6z"/>
<path d="M4953 5715 l2 -80 -90 0 -90 0 0 -45 0 -45 78 1 c46 1 77 -2 77 -8 0
-6 -20 -41 -45 -77 -43 -65 -96 -121 -180 -187 l-40 -32 33 -32 c32 -32 33
-33 55 -14 55 46 138 141 171 197 l37 62 -5 -166 -4 -165 46 1 47 1 -2 164 -3
165 32 -50 c33 -53 141 -166 195 -203 l31 -22 30 43 29 44 -53 32 c-92 55
-234 200 -234 239 0 7 44 9 115 7 l115 -3 0 48 0 48 -117 -2 c-65 -2 -123 -1
-130 2 -8 3 -11 27 -8 81 l4 78 -48 -1 -49 -1 1 -80z"/>
<path d="M2048 5709 l4 -81 -151 4 -151 3 0 -53 0 -53 138 3 c77 2 144 2 150
0 9 -3 12 -79 12 -278 l0 -274 -180 3 -180 3 2 -50 3 -51 208 4 c114 1 207 0
207 -3 0 -8 -60 -61 -108 -95 -63 -45 -153 -88 -247 -117 -49 -16 -91 -29 -93
-30 -2 -1 43 -87 53 -102 5 -6 204 81 248 108 27 17 51 30 54 30 13 0 143 112
184 159 l44 51 212 0 213 0 52 -53 c75 -74 131 -117 223 -170 70 -40 250 -117
272 -117 15 0 62 101 50 105 -138 43 -187 60 -235 81 -67 31 -179 103 -207
134 l-20 22 215 -3 215 -3 0 49 0 50 -183 -3 -182 -3 2 278 3 278 162 -3 162
-2 3 27 c2 16 2 39 0 53 l-4 25 -165 -3 -166 -4 5 81 5 81 -63 0 c-61 0 -63
-1 -58 -24 4 -24 7 -99 5 -124 -1 -10 -65 -12 -303 -10 l-302 3 3 65 c1 36 3
69 4 75 1 6 -25 11 -59 13 l-60 3 4 -82z m710 -186 c4 -6 7 -33 6 -60 l0 -48
-305 -3 -304 -2 1 54 c1 29 4 57 7 62 8 14 587 11 595 -3z m6 -263 l0 -55
-302 -3 c-166 -1 -302 1 -303 5 -1 11 -1 85 0 101 1 10 65 12 303 10 l301 -3
1 -55z m-1 -200 c-1 -25 -2 -53 -2 -62 -1 -16 -24 -18 -301 -18 -337 0 -302
-8 -302 75 0 19 0 40 1 45 1 7 104 9 303 8 l302 -3 -1 -45z"/>
<path d="M3770 5682 l0 -53 101 4 102 4 -7 -66 c-21 -225 -111 -471 -230 -630
-22 -30 -24 -37 -12 -50 7 -9 21 -31 31 -50 l17 -33 34 50 c19 28 34 55 34 59
0 4 9 19 20 33 19 25 19 25 15 2 -2 -12 -5 -167 -6 -345 l-1 -322 38 2 c22 0
45 2 52 2 8 1 12 25 12 86 l0 85 130 -4 130 -3 2 368 3 369 -126 0 -127 0 24
78 c25 78 61 248 67 312 2 20 6 40 9 46 4 6 43 9 97 7 l91 -2 0 52 0 52 -250
0 -250 0 0 -53z m360 -591 c3 0 6 -122 5 -271 0 -263 0 -270 -20 -271 -23 -1
-126 -1 -137 0 -5 1 -8 124 -8 274 l0 273 78 -2 c42 -1 79 -2 82 -3z"/>
<path d="M4299 5060 c0 -3 -2 -25 -2 -50 l-2 -45 218 1 c157 2 217 -1 218 -10
4 -27 4 -516 0 -516 -16 0 -126 78 -158 113 -65 70 -66 74 -43 172 30 129 29
132 -27 137 -27 3 -51 2 -54 -1 -4 -3 -9 -36 -12 -72 -7 -80 -45 -198 -89
-277 -18 -31 -65 -90 -106 -131 l-73 -74 39 -39 39 -38 39 38 c60 56 108 119
152 200 l39 73 17 -26 c30 -45 109 -114 168 -145 131 -70 307 -97 605 -91 l51
1 16 52 c8 28 13 54 11 58 -2 3 -36 3 -77 0 -113 -9 -338 -4 -385 9 l-43 12 0
118 0 119 180 -3 c99 -1 180 1 181 4 1 9 2 75 0 86 -1 6 -66 9 -181 7 l-181
-3 3 113 3 113 162 1 162 1 -19 -27 c-11 -15 -40 -45 -65 -66 l-46 -38 28 -14
c15 -8 35 -21 44 -28 14 -13 22 -8 65 38 28 29 69 81 92 114 l41 61 -29 28
-28 27 -476 1 c-262 1 -476 0 -477 -3z"/>
<path d="M2395 4756 c2 -51 0 -76 -8 -78 -7 -3 -89 -3 -182 -2 l-171 2 1 -44
c0 -42 18 -70 37 -58 6 4 263 8 309 5 14 -1 17 -15 17 -97 l0 -96 -304 4 -304
3 0 -50 0 -51 623 2 c342 0 648 -2 680 -6 63 -7 59 -11 60 64 l0 39 -326 -2
-327 -1 0 95 c0 83 2 95 18 96 52 3 365 -2 372 -6 4 -2 7 19 5 48 -3 68 -3 69
-16 61 -6 -4 -95 -7 -196 -8 l-185 -1 4 77 4 78 -57 0 -57 0 3 -74z"/>
<path d="M2384 2335 c-2 -5 -3 -262 -2 -569 l3 -559 1120 0 c616 1 1127 2
1135 2 14 1 16 65 15 568 l0 568 -1134 0 c-749 0 -1135 -3 -1137 -10z m2166
-560 l0 -465 -1033 0 -1034 0 0 465 0 465 1034 0 1033 0 0 -465z"/>
</g>
</svg>
